<svg width="242" height="130" viewBox="0 0 242 130" fill="none" xmlns="http://www.w3.org/2000/svg">
<path d="M0.652429 70.1785V1.34773H44.3575V5.77601H5.6583V32.2494H39.0629V36.5814H5.6583V70.1785H0.652429Z" fill="black"/>
<path d="M52.7132 70.1785L79.2828 1.34773H84.9626L111.628 70.1785H106.43L97.9586 48.1334H66.2868L57.8153 70.1785H52.7132ZM78.4164 16.5579L67.9234 43.8976H96.322L85.9252 16.5579L82.1708 6.3536H81.9783C80.6947 10.2685 79.5075 13.6699 78.4164 16.5579Z" fill="black"/>
<path d="M152.855 71.4299C144.512 71.4299 138.03 69.3121 133.41 65.0763C128.853 60.8406 126.382 55.2892 125.997 48.4222H131.099C131.356 54.1982 133.41 58.7548 137.26 62.0921C141.175 65.3651 146.341 67.0017 152.759 67.0017C158.15 67.0017 162.578 65.6218 166.044 62.8622C169.51 60.1026 171.242 56.3481 171.242 51.599C171.242 46.7856 169.766 43.4163 166.814 41.491C163.862 39.5015 158.118 37.7045 149.582 36.1C142.459 34.8165 137.164 32.8591 133.698 30.2278C130.233 27.5965 128.5 23.5854 128.5 18.1944C128.5 12.8035 130.586 8.43939 134.757 5.10214C138.993 1.70071 144.512 0 151.315 0C158.118 0 163.509 1.76489 167.488 5.29467C171.531 8.76028 173.81 13.3811 174.323 19.1571H169.317C168.868 14.4721 167.007 10.8461 163.734 8.27894C160.461 5.71183 156.353 4.42827 151.411 4.42827C145.892 4.42827 141.528 5.71183 138.319 8.27894C135.174 10.7819 133.602 14.0549 133.602 18.0982C133.602 22.1414 134.982 25.1256 137.742 27.051C140.565 28.9121 145.539 30.4845 152.663 31.768C155.743 32.3456 158.311 32.9232 160.364 33.5008C162.418 34.0143 164.536 34.7844 166.718 35.8112C168.964 36.7739 170.729 37.897 172.013 39.1806C173.296 40.4641 174.355 42.1328 175.189 44.1864C176.024 46.176 176.441 48.5185 176.441 51.2139C176.441 57.1183 174.259 61.9637 169.895 65.7502C165.595 69.5367 159.915 71.4299 152.855 71.4299Z" fill="black"/>
<path d="M190.016 5.87227V1.34773H242V5.87227H218.511V70.1785H213.505V5.87227H190.016Z" fill="black"/>
<path d="M0 128.34V93.9243H11.4557L15.6434 108.99L17.6168 116.836H17.7131C18.6116 113.049 19.2534 110.434 19.6384 108.99L23.8742 93.9243H35.4262V128.34H27.6286V111.012L27.773 104.129H27.6767C26.8745 107.562 26.345 109.696 26.0883 110.53L21.1306 128.34H14.1031L9.19348 110.578L7.60508 104.129H7.50881C7.60508 107.819 7.65321 110.129 7.65321 111.06V128.34H0Z" fill="black"/>
<path d="M38.6985 128.34L51.0688 93.9243H59.829L72.2475 128.34H63.2947L61.273 122.13H49.2397L47.2662 128.34H38.6985ZM51.2132 116.017H59.2996L56.7004 107.69L55.3526 102.829H55.2564C54.7109 104.883 54.2456 106.503 53.8605 107.69L51.2132 116.017Z" fill="black"/>
<path d="M75.6296 128.34V93.9243H84.1973L94.4016 111.204L96.7601 115.584H96.8564C96.7922 112.825 96.7601 111.044 96.7601 110.241V93.9243H105.087V128.34H96.5195L86.4115 111.3L83.9567 106.68H83.8604C83.9246 109.632 83.9567 111.509 83.9567 112.311V128.34H75.6296Z" fill="black"/>
<path d="M108.358 128.34L120.729 93.9243H129.489L141.907 128.34H132.955L130.933 122.13H118.9L116.926 128.34H108.358ZM120.873 116.017H128.959L126.36 107.69L125.013 102.829H124.916C124.371 104.883 123.905 106.503 123.52 107.69L120.873 116.017Z" fill="black"/>
<path d="M158.145 129.11C153.267 129.11 149.352 127.505 146.4 124.296C143.32 120.927 141.78 116.579 141.78 111.252C141.78 105.701 143.48 101.225 146.882 97.8231C149.866 94.7746 153.797 93.2504 158.674 93.2504C163.006 93.2504 166.488 94.3254 169.119 96.4753C171.751 98.5932 173.355 101.497 173.933 105.187H165.654C165.333 103.743 164.579 102.572 163.391 101.674C162.236 100.743 160.76 100.278 158.963 100.278C156.203 100.278 154.086 101.289 152.61 103.31C151.166 105.332 150.444 107.979 150.444 111.252C150.444 114.461 151.23 117.092 152.802 119.146C154.374 121.2 156.476 122.227 159.108 122.227C161.225 122.227 162.942 121.633 164.258 120.446C165.606 119.258 166.376 117.847 166.568 116.21V116.114H160.118V109.856H174.462V128.34H168.494L168.012 124.2H167.916C165.798 127.473 162.541 129.11 158.145 129.11Z" fill="black"/>
<path d="M179.579 128.34V93.9243H205.667V100.952H188.099V107.113H203.164V113.755H188.099V121.12H205.956V128.34H179.579Z" fill="black"/>
<path d="M210.766 128.34V93.9243H227.228C230.757 93.9243 233.645 94.8067 235.892 96.5716C238.138 98.3044 239.261 100.727 239.261 103.84C239.261 108.011 237.271 110.787 233.292 112.167V112.311C236.18 113.274 237.849 115.376 238.298 118.617C238.491 119.74 238.619 121.136 238.683 122.804C238.78 124.441 238.892 125.676 239.02 126.511C239.149 127.313 239.389 127.778 239.742 127.906V128.34H231.463C231.207 128.179 230.998 127.714 230.838 126.944C230.709 126.174 230.597 125.083 230.501 123.671C230.404 122.259 230.292 121.152 230.164 120.35C229.714 117.076 227.805 115.44 224.436 115.44H219.286V128.34H210.766ZM219.286 109.134H225.687C227.356 109.134 228.623 108.765 229.49 108.027C230.356 107.289 230.789 106.262 230.789 104.947C230.789 103.663 230.372 102.636 229.538 101.866C228.704 101.064 227.484 100.663 225.88 100.663H219.286V109.134Z" fill="black"/>
</svg>
